<?xml version="1.0" encoding="utf-8"?>
<!-- Generator: Adobe Illustrator 17.0.0, SVG Export Plug-In . SVG Version: 6.00 Build 0)  -->
<!DOCTYPE svg PUBLIC "-//W3C//DTD SVG 1.1//EN" "https://www.w3.org/Graphics/SVG/1.1/DTD/svg11.dtd">
<svg version="1.1" id="图层_1" xmlns="http://www.w3.org/2000/svg" xmlns:xlink="http://www.w3.org/1999/xlink" x="0px" y="0px"
	 width="1000px" height="1000px" viewBox="0 0 1000 1000" enable-background="new 0 0 1000 1000" xml:space="preserve">
<g>
	<path fill="#ffffff" d="M652.367,425.479C614.043,465.658,559.95,490.695,500,490.695s-114.043-25.037-152.367-65.217
		c-42.471,40.41-99.959,65.217-163.25,65.217c-37.791,0-73.513-8.843-105.205-24.574v366.106
		c0,57.948,47.152,105.034,105.318,105.034h631.01c58.262,0,105.318-47.025,105.318-105.034V466.121
		c-31.692,15.731-67.415,24.574-105.205,24.574C752.326,490.695,694.838,465.889,652.367,425.479z"/>
	<path fill="#ffffff" d="M999.454,220.351l-27.687-82.961c-13.76-41.226-60.27-74.651-103.882-74.651H131.569
		c-43.635,0-90.121,33.421-103.882,74.651L0,220.351h1.864C0.637,228.929,0,237.7,0,246.618c0,101.555,82.429,183.88,184.109,183.88
		c73.633,0,137.17-43.172,166.621-105.554c21.528,61.467,80.107,105.554,148.997,105.554s127.469-44.087,148.997-105.554
		c29.451,62.382,92.988,105.554,166.621,105.554c101.68,0,184.109-82.326,184.109-183.88
		C999.454,237.7,1000.683,228.929,999.454,220.351z"/>
</g>
</svg>
